# xmcd
#
# Track frame offsets: 
#        150
#        10445
#        27313
#        40482
#        54149
#        64685
#        79024
#        87073
#        105167
#        118301
#        135719
#        148132
#        160092
#
# Disc length: 2306 seconds
#
# Revision: 0
# Processed by: cddbd v1.5.2PL0 Copyright (c) Steve Scherf et al.
# Submitted via: ExactAudioCopy v1.0b1
#
DISCID=a509000d
DTITLE=Audie Blaylock and Redline - Cryin' Heart Blues
DYEAR=2010
DGENRE=Bluegrass
TTITLE0=Cryin' Heart Blues
TTITLE1=All I Can Do Is Pretend
TTITLE2=Matches
TTITLE3=Can't Keep Runnin'
TTITLE4=You Can Keep Your Nine Pound Hammer
TTITLE5=Stay Away from Me,
TTITLE6=Drink Up And Go Home
TTITLE7=Troubles
TTITLE8=Pray The Clouds Away
TTITLE9=Let's Part The Best Of Friends
TTITLE10=Talk To Your Heart
TTITLE11=He Is Near
TTITLE12=Rummie's Run
EXTD=
EXTT0=
EXTT1=
EXTT2=
EXTT3=
EXTT4=
EXTT5=
EXTT6=
EXTT7=
EXTT8=
EXTT9=
EXTT10=
EXTT11=
EXTT12=
PLAYORDER=
